<svg width="784" height="236" viewBox="0 0 784 236" fill="none" xmlns="http://www.w3.org/2000/svg">
<rect x="16" y="16" width="768" height="220" rx="40" fill="#2C2C27"/>
<rect x="4" y="4" width="760" height="212" rx="36" fill="#FCF4E6" stroke="#2C2C27" stroke-width="8"/>
<path d="M717.669 80.6271L707.039 69.9982L717.666 59.3705C717.771 59.2658 717.854 59.1416 717.91 59.0048C717.967 58.868 717.996 58.7214 717.996 58.5734C717.996 58.4253 717.967 58.2787 717.91 58.142C717.854 58.0052 717.771 57.8809 717.666 57.7762L710.222 50.3303C710.01 50.1188 709.723 50 709.424 50C709.125 50 708.838 50.1188 708.627 50.3303L697.999 60.958L687.372 50.3303C686.949 49.9069 686.201 49.9069 685.777 50.3303L678.331 57.7751C678.12 57.9868 678.001 58.2735 678.001 58.5725C678.001 58.8715 678.12 59.1583 678.331 59.3699L688.96 69.9982L678.33 80.6276C678.119 80.8394 678 81.1261 678 81.4251C678 81.724 678.119 82.0108 678.33 82.2225L685.774 89.6679C685.879 89.7727 686.003 89.8559 686.14 89.9127C686.277 89.9694 686.424 89.9986 686.572 89.9986C686.72 89.9986 686.867 89.9694 687.003 89.9127C687.14 89.8559 687.265 89.7727 687.369 89.6679L697.999 79.0385L708.629 89.6673C708.849 89.8872 709.136 89.9977 709.426 89.9977C709.716 89.9977 710.004 89.8872 710.224 89.6673L717.67 82.2219C717.881 82.0103 718 81.7235 718 81.4244C718 81.1253 717.881 80.8385 717.669 80.6271Z" fill="#2C2C27"/>
<path d="M63.8 77.68C66.76 77.68 69.3467 78.28 71.56 79.48C73.8 80.68 75.52 82.3467 76.72 84.48C77.92 86.6133 78.52 89.04 78.52 91.76C78.52 94.4533 77.92 96.88 76.72 99.04C75.52 101.2 73.8 102.907 71.56 104.16C69.3467 105.387 66.76 106 63.8 106H52V77.68H63.8ZM63 98.08C65 98.08 66.5867 97.5333 67.76 96.44C68.9333 95.3467 69.52 93.7867 69.52 91.76C69.52 89.7333 68.9333 88.1733 67.76 87.08C66.5867 85.9867 65 85.44 63 85.44H60.88V98.08H63ZM90.6066 84.76V88.24H99.4066V94.92H90.6066V98.92H100.607V106H81.7266V77.68H100.607V84.76H90.6066ZM131.153 77.68L120.993 97.4V106H112.113V97.4L101.953 77.68H112.113L116.633 87.72L121.153 77.68H131.153ZM152.132 91.48C153.839 91.88 155.159 92.7067 156.092 93.96C157.052 95.1867 157.532 96.6133 157.532 98.24C157.532 100.72 156.705 102.64 155.052 104C153.425 105.333 151.079 106 148.012 106H133.172V77.68H147.612C150.492 77.68 152.759 78.3067 154.412 79.56C156.065 80.8133 156.892 82.64 156.892 85.04C156.892 86.6933 156.452 88.0933 155.572 89.24C154.719 90.36 153.572 91.1067 152.132 91.48ZM142.052 88.72H145.492C146.292 88.72 146.879 88.56 147.252 88.24C147.652 87.92 147.852 87.4267 147.852 86.76C147.852 86.0667 147.652 85.56 147.252 85.24C146.879 84.8933 146.292 84.72 145.492 84.72H142.052V88.72ZM146.092 98.88C146.892 98.88 147.479 98.7333 147.852 98.44C148.252 98.12 148.452 97.6133 148.452 96.92C148.452 95.56 147.665 94.88 146.092 94.88H142.052V98.88H146.092ZM169.396 84.76V88.24H178.196V94.92H169.396V98.92H179.396V106H160.516V77.68H179.396V84.76H169.396ZM200.902 101.72H191.462L190.062 106H180.742L191.102 77.68H201.342L211.662 106H202.302L200.902 101.72ZM198.742 95.04L196.182 87.16L193.622 95.04H198.742ZM227.92 106L222.6 95.84H222.56V106H213.68V77.68H226.88C229.173 77.68 231.133 78.0933 232.76 78.92C234.386 79.72 235.6 80.8267 236.4 82.24C237.226 83.6267 237.64 85.2 237.64 86.96C237.64 88.8533 237.106 90.5333 236.04 92C235 93.4667 233.493 94.52 231.52 95.16L237.68 106H227.92ZM222.56 89.92H226.08C226.933 89.92 227.573 89.7333 228 89.36C228.426 88.96 228.64 88.3467 228.64 87.52C228.64 86.7733 228.413 86.1867 227.96 85.76C227.533 85.3333 226.906 85.12 226.08 85.12H222.56V89.92ZM242.797 77.68H251.597L246.877 89.48H241.037L242.797 77.68ZM266.674 106.28C263.287 106.28 260.487 105.493 258.274 103.92C256.087 102.32 254.9 99.9867 254.714 96.92H264.154C264.287 98.5467 265.007 99.36 266.314 99.36C266.794 99.36 267.194 99.2533 267.514 99.04C267.86 98.8 268.034 98.44 268.034 97.96C268.034 97.2933 267.674 96.76 266.954 96.36C266.234 95.9333 265.114 95.4533 263.594 94.92C261.78 94.28 260.274 93.6533 259.074 93.04C257.9 92.4267 256.887 91.5333 256.034 90.36C255.18 89.1867 254.767 87.68 254.794 85.84C254.794 84 255.26 82.44 256.194 81.16C257.154 79.8533 258.447 78.8667 260.074 78.2C261.727 77.5333 263.58 77.2 265.634 77.2C269.1 77.2 271.847 78 273.874 79.6C275.927 81.2 277.007 83.4533 277.114 86.36H267.554C267.527 85.56 267.327 84.9867 266.954 84.64C266.58 84.2933 266.127 84.12 265.594 84.12C265.22 84.12 264.914 84.2533 264.674 84.52C264.434 84.76 264.314 85.1067 264.314 85.56C264.314 86.2 264.66 86.7333 265.354 87.16C266.074 87.56 267.207 88.0533 268.754 88.64C270.54 89.3067 272.007 89.9467 273.154 90.56C274.327 91.1733 275.34 92.0267 276.194 93.12C277.047 94.2133 277.474 95.5867 277.474 97.24C277.474 98.9733 277.047 100.533 276.194 101.92C275.34 103.28 274.1 104.347 272.474 105.12C270.847 105.893 268.914 106.28 266.674 106.28ZM304.751 87.36C304.404 86.8 303.911 86.3733 303.271 86.08C302.631 85.76 301.857 85.6 300.951 85.6C299.244 85.6 297.924 86.16 296.991 87.28C296.057 88.3733 295.591 89.88 295.591 91.8C295.591 94.0133 296.111 95.6667 297.151 96.76C298.191 97.8533 299.791 98.4 301.951 98.4C304.004 98.4 305.657 97.5733 306.911 95.92H299.831V89.64H314.271V98.52C313.044 100.627 311.351 102.44 309.191 103.96C307.031 105.453 304.297 106.2 300.991 106.2C298.057 106.2 295.497 105.6 293.311 104.4C291.151 103.173 289.484 101.467 288.311 99.28C287.164 97.0933 286.591 94.6 286.591 91.8C286.591 89 287.164 86.5067 288.311 84.32C289.484 82.1333 291.151 80.44 293.311 79.24C295.471 78.0133 298.004 77.4 300.911 77.4C304.617 77.4 307.631 78.2933 309.951 80.08C312.297 81.8667 313.684 84.2933 314.111 87.36H304.751ZM335.629 101.72H326.189L324.789 106H315.469L325.829 77.68H336.069L346.389 106H337.029L335.629 101.72ZM333.469 95.04L330.909 87.16L328.349 95.04H333.469ZM382.446 77.68V106H373.606V91.88L369.246 106H361.646L357.286 91.88V106H348.406V77.68H359.286L365.526 94.68L371.606 77.68H382.446ZM395.333 84.76V88.24H404.133V94.92H395.333V98.92H405.333V106H386.453V77.68H405.333V84.76H395.333ZM419.877 106.32C418.33 106.32 417.09 105.907 416.157 105.08C415.223 104.253 414.757 103.213 414.757 101.96C414.757 100.68 415.223 99.6267 416.157 98.8C417.09 97.9467 418.33 97.52 419.877 97.52C421.397 97.52 422.623 97.9467 423.557 98.8C424.49 99.6267 424.957 100.68 424.957 101.96C424.957 103.213 424.49 104.253 423.557 105.08C422.623 105.907 421.397 106.32 419.877 106.32ZM439.447 106.32C437.9 106.32 436.66 105.907 435.727 105.08C434.794 104.253 434.327 103.213 434.327 101.96C434.327 100.68 434.794 99.6267 435.727 98.8C436.66 97.9467 437.9 97.52 439.447 97.52C440.967 97.52 442.194 97.9467 443.127 98.8C444.06 99.6267 444.527 100.68 444.527 101.96C444.527 103.213 444.06 104.253 443.127 105.08C442.194 105.907 440.967 106.32 439.447 106.32ZM459.017 106.32C457.471 106.32 456.231 105.907 455.297 105.08C454.364 104.253 453.897 103.213 453.897 101.96C453.897 100.68 454.364 99.6267 455.297 98.8C456.231 97.9467 457.471 97.52 459.017 97.52C460.537 97.52 461.764 97.9467 462.697 98.8C463.631 99.6267 464.097 100.68 464.097 101.96C464.097 103.213 463.631 104.253 462.697 105.08C461.764 105.907 460.537 106.32 459.017 106.32Z" fill="#2C2C27"/>
<path d="M62.576 131.32V133.552H58.136V148H55.4V133.552H50.936V131.32H62.576ZM72.1869 134.56C73.1949 134.56 74.0909 134.776 74.8749 135.208C75.6749 135.64 76.2989 136.28 76.7469 137.128C77.2109 137.976 77.4429 139 77.4429 140.2V148H74.7309V140.608C74.7309 139.424 74.4349 138.52 73.8429 137.896C73.2509 137.256 72.4429 136.936 71.4189 136.936C70.3949 136.936 69.5789 137.256 68.9709 137.896C68.3789 138.52 68.0829 139.424 68.0829 140.608V148H65.3469V130.24H68.0829V136.312C68.5469 135.752 69.1309 135.32 69.8349 135.016C70.5549 134.712 71.3389 134.56 72.1869 134.56ZM80.0208 141.328C80.0208 140 80.2928 138.824 80.8368 137.8C81.3968 136.776 82.1488 135.984 83.0928 135.424C84.0528 134.848 85.1088 134.56 86.2608 134.56C87.3008 134.56 88.2048 134.768 88.9728 135.184C89.7568 135.584 90.3808 136.088 90.8448 136.696V134.776H93.6048V148H90.8448V146.032C90.3808 146.656 89.7488 147.176 88.9488 147.592C88.1488 148.008 87.2368 148.216 86.2128 148.216C85.0768 148.216 84.0368 147.928 83.0928 147.352C82.1488 146.76 81.3968 145.944 80.8368 144.904C80.2928 143.848 80.0208 142.656 80.0208 141.328ZM90.8448 141.376C90.8448 140.464 90.6528 139.672 90.2688 139C89.9008 138.328 89.4128 137.816 88.8048 137.464C88.1968 137.112 87.5408 136.936 86.8368 136.936C86.1328 136.936 85.4768 137.112 84.8688 137.464C84.2608 137.8 83.7648 138.304 83.3808 138.976C83.0128 139.632 82.8288 140.416 82.8288 141.328C82.8288 142.24 83.0128 143.04 83.3808 143.728C83.7648 144.416 84.2608 144.944 84.8688 145.312C85.4928 145.664 86.1488 145.84 86.8368 145.84C87.5408 145.84 88.1968 145.664 88.8048 145.312C89.4128 144.96 89.9008 144.448 90.2688 143.776C90.6528 143.088 90.8448 142.288 90.8448 141.376ZM103.87 134.56C104.91 134.56 105.838 134.776 106.654 135.208C107.486 135.64 108.134 136.28 108.598 137.128C109.062 137.976 109.294 139 109.294 140.2V148H106.582V140.608C106.582 139.424 106.286 138.52 105.694 137.896C105.102 137.256 104.294 136.936 103.27 136.936C102.246 136.936 101.43 137.256 100.822 137.896C100.23 138.52 99.9344 139.424 99.9344 140.608V148H97.1984V134.776H99.9344V136.288C100.382 135.744 100.95 135.32 101.638 135.016C102.342 134.712 103.086 134.56 103.87 134.56ZM118.016 141.4L124.112 148H120.416L115.52 142.312V148H112.784V130.24H115.52V140.56L120.32 134.776H124.112L118.016 141.4ZM130.873 148.216C129.833 148.216 128.897 148.032 128.065 147.664C127.249 147.28 126.601 146.768 126.121 146.128C125.641 145.472 125.385 144.744 125.353 143.944H128.185C128.233 144.504 128.497 144.976 128.977 145.36C129.473 145.728 130.089 145.912 130.825 145.912C131.593 145.912 132.185 145.768 132.601 145.48C133.033 145.176 133.249 144.792 133.249 144.328C133.249 143.832 133.009 143.464 132.529 143.224C132.065 142.984 131.321 142.72 130.297 142.432C129.305 142.16 128.497 141.896 127.873 141.64C127.249 141.384 126.705 140.992 126.241 140.464C125.793 139.936 125.569 139.24 125.569 138.376C125.569 137.672 125.777 137.032 126.193 136.456C126.609 135.864 127.201 135.4 127.969 135.064C128.753 134.728 129.649 134.56 130.657 134.56C132.161 134.56 133.369 134.944 134.281 135.712C135.209 136.464 135.705 137.496 135.769 138.808H133.033C132.985 138.216 132.745 137.744 132.313 137.392C131.881 137.04 131.297 136.864 130.561 136.864C129.841 136.864 129.289 137 128.905 137.272C128.521 137.544 128.329 137.904 128.329 138.352C128.329 138.704 128.457 139 128.713 139.24C128.969 139.48 129.281 139.672 129.649 139.816C130.017 139.944 130.561 140.112 131.281 140.32C132.241 140.576 133.025 140.84 133.633 141.112C134.257 141.368 134.793 141.752 135.241 142.264C135.689 142.776 135.921 143.456 135.937 144.304C135.937 145.056 135.729 145.728 135.313 146.32C134.897 146.912 134.305 147.376 133.537 147.712C132.785 148.048 131.897 148.216 130.873 148.216ZM150.672 137.008H148.224V148H145.464V137.008H143.904V134.776H145.464V133.84C145.464 132.32 145.864 131.216 146.664 130.528C147.48 129.824 148.752 129.472 150.48 129.472V131.752C149.648 131.752 149.064 131.912 148.728 132.232C148.392 132.536 148.224 133.072 148.224 133.84V134.776H150.672V137.008ZM158.833 148.216C157.585 148.216 156.457 147.936 155.449 147.376C154.441 146.8 153.649 146 153.073 144.976C152.497 143.936 152.209 142.736 152.209 141.376C152.209 140.032 152.505 138.84 153.097 137.8C153.689 136.76 154.497 135.96 155.521 135.4C156.545 134.84 157.689 134.56 158.953 134.56C160.217 134.56 161.361 134.84 162.385 135.4C163.409 135.96 164.217 136.76 164.809 137.8C165.401 138.84 165.697 140.032 165.697 141.376C165.697 142.72 165.393 143.912 164.785 144.952C164.177 145.992 163.345 146.8 162.289 147.376C161.249 147.936 160.097 148.216 158.833 148.216ZM158.833 145.84C159.537 145.84 160.193 145.672 160.801 145.336C161.425 145 161.929 144.496 162.313 143.824C162.697 143.152 162.889 142.336 162.889 141.376C162.889 140.416 162.705 139.608 162.337 138.952C161.969 138.28 161.481 137.776 160.873 137.44C160.265 137.104 159.609 136.936 158.905 136.936C158.201 136.936 157.545 137.104 156.937 137.44C156.345 137.776 155.873 138.28 155.521 138.952C155.169 139.608 154.993 140.416 154.993 141.376C154.993 142.8 155.353 143.904 156.073 144.688C156.809 145.456 157.729 145.84 158.833 145.84ZM171.138 136.696C171.538 136.024 172.066 135.504 172.722 135.136C173.394 134.752 174.186 134.56 175.098 134.56V137.392H174.402C173.33 137.392 172.514 137.664 171.954 138.208C171.41 138.752 171.138 139.696 171.138 141.04V148H168.402V134.776H171.138V136.696ZM186.583 136.72C187.047 136.112 187.679 135.6 188.479 135.184C189.279 134.768 190.183 134.56 191.191 134.56C192.343 134.56 193.391 134.848 194.335 135.424C195.295 135.984 196.047 136.776 196.591 137.8C197.135 138.824 197.407 140 197.407 141.328C197.407 142.656 197.135 143.848 196.591 144.904C196.047 145.944 195.295 146.76 194.335 147.352C193.391 147.928 192.343 148.216 191.191 148.216C190.183 148.216 189.287 148.016 188.503 147.616C187.719 147.2 187.079 146.688 186.583 146.08V154.288H183.847V134.776H186.583V136.72ZM194.623 141.328C194.623 140.416 194.431 139.632 194.047 138.976C193.679 138.304 193.183 137.8 192.559 137.464C191.951 137.112 191.295 136.936 190.591 136.936C189.903 136.936 189.247 137.112 188.623 137.464C188.015 137.816 187.519 138.328 187.135 139C186.767 139.672 186.583 140.464 186.583 141.376C186.583 142.288 186.767 143.088 187.135 143.776C187.519 144.448 188.015 144.96 188.623 145.312C189.247 145.664 189.903 145.84 190.591 145.84C191.295 145.84 191.951 145.664 192.559 145.312C193.183 144.944 193.679 144.416 194.047 143.728C194.431 143.04 194.623 142.24 194.623 141.328ZM202.849 130.24V148H200.113V130.24H202.849ZM205.529 141.328C205.529 140 205.801 138.824 206.345 137.8C206.905 136.776 207.657 135.984 208.601 135.424C209.561 134.848 210.617 134.56 211.769 134.56C212.809 134.56 213.713 134.768 214.481 135.184C215.265 135.584 215.889 136.088 216.353 136.696V134.776H219.113V148H216.353V146.032C215.889 146.656 215.257 147.176 214.457 147.592C213.657 148.008 212.745 148.216 211.721 148.216C210.585 148.216 209.545 147.928 208.601 147.352C207.657 146.76 206.905 145.944 206.345 144.904C205.801 143.848 205.529 142.656 205.529 141.328ZM216.353 141.376C216.353 140.464 216.161 139.672 215.777 139C215.409 138.328 214.921 137.816 214.313 137.464C213.705 137.112 213.049 136.936 212.345 136.936C211.641 136.936 210.985 137.112 210.377 137.464C209.769 137.8 209.273 138.304 208.889 138.976C208.521 139.632 208.337 140.416 208.337 141.328C208.337 142.24 208.521 143.04 208.889 143.728C209.273 144.416 209.769 144.944 210.377 145.312C211.001 145.664 211.657 145.84 212.345 145.84C213.049 145.84 213.705 145.664 214.313 145.312C214.921 144.96 215.409 144.448 215.777 143.776C216.161 143.088 216.353 142.288 216.353 141.376ZM234.61 134.776L226.498 154.216H223.666L226.354 147.784L221.146 134.776H224.194L227.914 144.856L231.778 134.776H234.61ZM238.067 133.024C237.571 133.024 237.155 132.856 236.819 132.52C236.483 132.184 236.315 131.768 236.315 131.272C236.315 130.776 236.483 130.36 236.819 130.024C237.155 129.688 237.571 129.52 238.067 129.52C238.547 129.52 238.955 129.688 239.291 130.024C239.627 130.36 239.795 130.776 239.795 131.272C239.795 131.768 239.627 132.184 239.291 132.52C238.955 132.856 238.547 133.024 238.067 133.024ZM239.411 134.776V148H236.675V134.776H239.411ZM249.675 134.56C250.715 134.56 251.643 134.776 252.459 135.208C253.291 135.64 253.939 136.28 254.403 137.128C254.867 137.976 255.099 139 255.099 140.2V148H252.387V140.608C252.387 139.424 252.091 138.52 251.499 137.896C250.907 137.256 250.099 136.936 249.075 136.936C248.051 136.936 247.235 137.256 246.627 137.896C246.035 138.52 245.739 139.424 245.739 140.608V148H243.003V134.776H245.739V136.288C246.187 135.744 246.755 135.32 247.443 135.016C248.147 134.712 248.891 134.56 249.675 134.56ZM263.917 134.56C264.941 134.56 265.845 134.768 266.629 135.184C267.429 135.584 268.053 136.088 268.501 136.696V134.776H271.261V148.216C271.261 149.432 271.005 150.512 270.493 151.456C269.981 152.416 269.237 153.168 268.261 153.712C267.301 154.256 266.149 154.528 264.805 154.528C263.013 154.528 261.525 154.104 260.341 153.256C259.157 152.424 258.485 151.288 258.325 149.848H261.037C261.245 150.536 261.685 151.088 262.357 151.504C263.045 151.936 263.861 152.152 264.805 152.152C265.909 152.152 266.797 151.816 267.469 151.144C268.157 150.472 268.501 149.496 268.501 148.216V146.008C268.037 146.632 267.405 147.16 266.605 147.592C265.821 148.008 264.925 148.216 263.917 148.216C262.765 148.216 261.709 147.928 260.749 147.352C259.805 146.76 259.053 145.944 258.493 144.904C257.949 143.848 257.677 142.656 257.677 141.328C257.677 140 257.949 138.824 258.493 137.8C259.053 136.776 259.805 135.984 260.749 135.424C261.709 134.848 262.765 134.56 263.917 134.56ZM268.501 141.376C268.501 140.464 268.309 139.672 267.925 139C267.557 138.328 267.069 137.816 266.461 137.464C265.853 137.112 265.197 136.936 264.493 136.936C263.789 136.936 263.133 137.112 262.525 137.464C261.917 137.8 261.421 138.304 261.037 138.976C260.669 139.632 260.485 140.416 260.485 141.328C260.485 142.24 260.669 143.04 261.037 143.728C261.421 144.416 261.917 144.944 262.525 145.312C263.149 145.664 263.805 145.84 264.493 145.84C265.197 145.84 265.853 145.664 266.461 145.312C267.069 144.96 267.557 144.448 267.925 143.776C268.309 143.088 268.501 142.288 268.501 141.376ZM297.097 134.56C298.137 134.56 299.065 134.776 299.881 135.208C300.713 135.64 301.361 136.28 301.825 137.128C302.305 137.976 302.545 139 302.545 140.2V148H299.833V140.608C299.833 139.424 299.537 138.52 298.945 137.896C298.353 137.256 297.545 136.936 296.521 136.936C295.497 136.936 294.681 137.256 294.073 137.896C293.481 138.52 293.185 139.424 293.185 140.608V148H290.473V140.608C290.473 139.424 290.177 138.52 289.585 137.896C288.993 137.256 288.185 136.936 287.161 136.936C286.137 136.936 285.321 137.256 284.713 137.896C284.121 138.52 283.825 139.424 283.825 140.608V148H281.089V134.776H283.825V136.288C284.273 135.744 284.841 135.32 285.529 135.016C286.217 134.712 286.953 134.56 287.737 134.56C288.793 134.56 289.737 134.784 290.569 135.232C291.401 135.68 292.041 136.328 292.489 137.176C292.889 136.376 293.513 135.744 294.361 135.28C295.209 134.8 296.121 134.56 297.097 134.56ZM317.931 134.776L309.819 154.216H306.987L309.675 147.784L304.467 134.776H307.515L311.235 144.856L315.099 134.776H317.931ZM331.558 134.56C332.582 134.56 333.486 134.768 334.27 135.184C335.07 135.584 335.694 136.088 336.142 136.696V134.776H338.902V148.216C338.902 149.432 338.646 150.512 338.134 151.456C337.622 152.416 336.878 153.168 335.902 153.712C334.942 154.256 333.79 154.528 332.446 154.528C330.654 154.528 329.166 154.104 327.982 153.256C326.798 152.424 326.126 151.288 325.966 149.848H328.678C328.886 150.536 329.326 151.088 329.998 151.504C330.686 151.936 331.502 152.152 332.446 152.152C333.55 152.152 334.438 151.816 335.11 151.144C335.798 150.472 336.142 149.496 336.142 148.216V146.008C335.678 146.632 335.046 147.16 334.246 147.592C333.462 148.008 332.566 148.216 331.558 148.216C330.406 148.216 329.35 147.928 328.39 147.352C327.446 146.76 326.694 145.944 326.134 144.904C325.59 143.848 325.318 142.656 325.318 141.328C325.318 140 325.59 138.824 326.134 137.8C326.694 136.776 327.446 135.984 328.39 135.424C329.35 134.848 330.406 134.56 331.558 134.56ZM336.142 141.376C336.142 140.464 335.95 139.672 335.566 139C335.198 138.328 334.71 137.816 334.102 137.464C333.494 137.112 332.838 136.936 332.134 136.936C331.43 136.936 330.774 137.112 330.166 137.464C329.558 137.8 329.062 138.304 328.678 138.976C328.31 139.632 328.126 140.416 328.126 141.328C328.126 142.24 328.31 143.04 328.678 143.728C329.062 144.416 329.558 144.944 330.166 145.312C330.79 145.664 331.446 145.84 332.134 145.84C332.838 145.84 333.494 145.664 334.102 145.312C334.71 144.96 335.198 144.448 335.566 143.776C335.95 143.088 336.142 142.288 336.142 141.376ZM341.583 141.328C341.583 140 341.855 138.824 342.399 137.8C342.959 136.776 343.711 135.984 344.655 135.424C345.615 134.848 346.671 134.56 347.823 134.56C348.863 134.56 349.767 134.768 350.535 135.184C351.319 135.584 351.943 136.088 352.407 136.696V134.776H355.167V148H352.407V146.032C351.943 146.656 351.311 147.176 350.511 147.592C349.711 148.008 348.799 148.216 347.775 148.216C346.639 148.216 345.599 147.928 344.655 147.352C343.711 146.76 342.959 145.944 342.399 144.904C341.855 143.848 341.583 142.656 341.583 141.328ZM352.407 141.376C352.407 140.464 352.215 139.672 351.831 139C351.463 138.328 350.975 137.816 350.367 137.464C349.759 137.112 349.103 136.936 348.399 136.936C347.695 136.936 347.039 137.112 346.431 137.464C345.823 137.8 345.327 138.304 344.943 138.976C344.575 139.632 344.391 140.416 344.391 141.328C344.391 142.24 344.575 143.04 344.943 143.728C345.327 144.416 345.823 144.944 346.431 145.312C347.055 145.664 347.711 145.84 348.399 145.84C349.103 145.84 349.759 145.664 350.367 145.312C350.975 144.96 351.463 144.448 351.831 143.776C352.215 143.088 352.407 142.288 352.407 141.376ZM374.769 134.56C375.809 134.56 376.737 134.776 377.553 135.208C378.385 135.64 379.033 136.28 379.497 137.128C379.977 137.976 380.217 139 380.217 140.2V148H377.505V140.608C377.505 139.424 377.209 138.52 376.617 137.896C376.025 137.256 375.217 136.936 374.193 136.936C373.169 136.936 372.353 137.256 371.745 137.896C371.153 138.52 370.857 139.424 370.857 140.608V148H368.145V140.608C368.145 139.424 367.849 138.52 367.257 137.896C366.665 137.256 365.857 136.936 364.833 136.936C363.809 136.936 362.993 137.256 362.385 137.896C361.793 138.52 361.497 139.424 361.497 140.608V148H358.761V134.776H361.497V136.288C361.945 135.744 362.513 135.32 363.201 135.016C363.889 134.712 364.625 134.56 365.409 134.56C366.465 134.56 367.409 134.784 368.241 135.232C369.073 135.68 369.713 136.328 370.161 137.176C370.561 136.376 371.185 135.744 372.033 135.28C372.881 134.8 373.793 134.56 374.769 134.56ZM395.818 141.064C395.818 141.56 395.786 142.008 395.722 142.408H385.618C385.698 143.464 386.09 144.312 386.794 144.952C387.498 145.592 388.362 145.912 389.386 145.912C390.858 145.912 391.898 145.296 392.506 144.064H395.458C395.058 145.28 394.33 146.28 393.274 147.064C392.234 147.832 390.938 148.216 389.386 148.216C388.122 148.216 386.986 147.936 385.978 147.376C384.986 146.8 384.202 146 383.626 144.976C383.066 143.936 382.786 142.736 382.786 141.376C382.786 140.016 383.058 138.824 383.602 137.8C384.162 136.76 384.938 135.96 385.93 135.4C386.938 134.84 388.09 134.56 389.386 134.56C390.634 134.56 391.746 134.832 392.722 135.376C393.698 135.92 394.458 136.688 395.002 137.68C395.546 138.656 395.818 139.784 395.818 141.064ZM392.962 140.2C392.946 139.192 392.586 138.384 391.882 137.776C391.178 137.168 390.306 136.864 389.266 136.864C388.322 136.864 387.514 137.168 386.842 137.776C386.17 138.368 385.77 139.176 385.642 140.2H392.962ZM401.511 144.712L398.607 151.336H396.831L398.535 144.712H401.511ZM412.872 131.32V148H410.136V131.32H412.872ZM429.538 134.56C430.546 134.56 431.442 134.776 432.226 135.208C433.026 135.64 433.65 136.28 434.098 137.128C434.562 137.976 434.794 139 434.794 140.2V148H432.082V140.608C432.082 139.424 431.786 138.52 431.194 137.896C430.602 137.256 429.794 136.936 428.77 136.936C427.746 136.936 426.93 137.256 426.322 137.896C425.73 138.52 425.434 139.424 425.434 140.608V148H422.698V130.24H425.434V136.312C425.898 135.752 426.482 135.32 427.186 135.016C427.906 134.712 428.69 134.56 429.538 134.56ZM444.02 148.216C442.772 148.216 441.644 147.936 440.636 147.376C439.628 146.8 438.836 146 438.26 144.976C437.684 143.936 437.396 142.736 437.396 141.376C437.396 140.032 437.692 138.84 438.284 137.8C438.876 136.76 439.684 135.96 440.708 135.4C441.732 134.84 442.876 134.56 444.14 134.56C445.404 134.56 446.548 134.84 447.572 135.4C448.596 135.96 449.404 136.76 449.996 137.8C450.588 138.84 450.884 140.032 450.884 141.376C450.884 142.72 450.58 143.912 449.972 144.952C449.364 145.992 448.532 146.8 447.476 147.376C446.436 147.936 445.284 148.216 444.02 148.216ZM444.02 145.84C444.724 145.84 445.38 145.672 445.988 145.336C446.612 145 447.116 144.496 447.5 143.824C447.884 143.152 448.076 142.336 448.076 141.376C448.076 140.416 447.892 139.608 447.524 138.952C447.156 138.28 446.668 137.776 446.06 137.44C445.452 137.104 444.796 136.936 444.092 136.936C443.388 136.936 442.732 137.104 442.124 137.44C441.532 137.776 441.06 138.28 440.708 138.952C440.356 139.608 440.18 140.416 440.18 141.376C440.18 142.8 440.54 143.904 441.26 144.688C441.996 145.456 442.916 145.84 444.02 145.84ZM456.325 136.72C456.789 136.112 457.421 135.6 458.221 135.184C459.021 134.768 459.925 134.56 460.933 134.56C462.085 134.56 463.133 134.848 464.077 135.424C465.037 135.984 465.789 136.776 466.333 137.8C466.877 138.824 467.149 140 467.149 141.328C467.149 142.656 466.877 143.848 466.333 144.904C465.789 145.944 465.037 146.76 464.077 147.352C463.133 147.928 462.085 148.216 460.933 148.216C459.925 148.216 459.029 148.016 458.245 147.616C457.461 147.2 456.821 146.688 456.325 146.08V154.288H453.589V134.776H456.325V136.72ZM464.365 141.328C464.365 140.416 464.173 139.632 463.789 138.976C463.421 138.304 462.925 137.8 462.301 137.464C461.693 137.112 461.037 136.936 460.333 136.936C459.645 136.936 458.989 137.112 458.365 137.464C457.757 137.816 457.261 138.328 456.877 139C456.509 139.672 456.325 140.464 456.325 141.376C456.325 142.288 456.509 143.088 456.877 143.776C457.261 144.448 457.757 144.96 458.365 145.312C458.989 145.664 459.645 145.84 460.333 145.84C461.037 145.84 461.693 145.664 462.301 145.312C462.925 144.944 463.421 144.416 463.789 143.728C464.173 143.04 464.365 142.24 464.365 141.328ZM481.975 141.064C481.975 141.56 481.943 142.008 481.879 142.408H471.775C471.855 143.464 472.247 144.312 472.951 144.952C473.655 145.592 474.519 145.912 475.543 145.912C477.015 145.912 478.055 145.296 478.663 144.064H481.615C481.215 145.28 480.487 146.28 479.431 147.064C478.391 147.832 477.095 148.216 475.543 148.216C474.279 148.216 473.143 147.936 472.135 147.376C471.143 146.8 470.359 146 469.783 144.976C469.223 143.936 468.943 142.736 468.943 141.376C468.943 140.016 469.215 138.824 469.759 137.8C470.319 136.76 471.095 135.96 472.087 135.4C473.095 134.84 474.247 134.56 475.543 134.56C476.791 134.56 477.903 134.832 478.879 135.376C479.855 135.92 480.615 136.688 481.159 137.68C481.703 138.656 481.975 139.784 481.975 141.064ZM479.119 140.2C479.103 139.192 478.743 138.384 478.039 137.776C477.335 137.168 476.463 136.864 475.423 136.864C474.479 136.864 473.671 137.168 472.999 137.776C472.327 138.368 471.927 139.176 471.799 140.2H479.119ZM502.806 134.776L494.694 154.216H491.862L494.55 147.784L489.342 134.776H492.39L496.11 144.856L499.974 134.776H502.806ZM510.606 148.216C509.358 148.216 508.23 147.936 507.222 147.376C506.214 146.8 505.422 146 504.846 144.976C504.27 143.936 503.982 142.736 503.982 141.376C503.982 140.032 504.278 138.84 504.87 137.8C505.462 136.76 506.27 135.96 507.294 135.4C508.318 134.84 509.462 134.56 510.726 134.56C511.99 134.56 513.134 134.84 514.158 135.4C515.182 135.96 515.99 136.76 516.582 137.8C517.174 138.84 517.47 140.032 517.47 141.376C517.47 142.72 517.166 143.912 516.558 144.952C515.95 145.992 515.118 146.8 514.062 147.376C513.022 147.936 511.87 148.216 510.606 148.216ZM510.606 145.84C511.31 145.84 511.966 145.672 512.574 145.336C513.198 145 513.702 144.496 514.086 143.824C514.47 143.152 514.662 142.336 514.662 141.376C514.662 140.416 514.478 139.608 514.11 138.952C513.742 138.28 513.254 137.776 512.646 137.44C512.038 137.104 511.382 136.936 510.678 136.936C509.974 136.936 509.318 137.104 508.71 137.44C508.118 137.776 507.646 138.28 507.294 138.952C506.942 139.608 506.766 140.416 506.766 141.376C506.766 142.8 507.126 143.904 507.846 144.688C508.582 145.456 509.502 145.84 510.606 145.84ZM532.151 134.776V148H529.415V146.44C528.983 146.984 528.415 147.416 527.711 147.736C527.023 148.04 526.287 148.192 525.503 148.192C524.463 148.192 523.527 147.976 522.695 147.544C521.879 147.112 521.231 146.472 520.751 145.624C520.287 144.776 520.055 143.752 520.055 142.552V134.776H522.767V142.144C522.767 143.328 523.063 144.24 523.655 144.88C524.247 145.504 525.055 145.816 526.079 145.816C527.103 145.816 527.911 145.504 528.503 144.88C529.111 144.24 529.415 143.328 529.415 142.144V134.776H532.151ZM554.115 141.064C554.115 141.56 554.083 142.008 554.019 142.408H543.915C543.995 143.464 544.387 144.312 545.091 144.952C545.795 145.592 546.659 145.912 547.683 145.912C549.155 145.912 550.195 145.296 550.803 144.064H553.755C553.355 145.28 552.627 146.28 551.571 147.064C550.531 147.832 549.235 148.216 547.683 148.216C546.419 148.216 545.283 147.936 544.275 147.376C543.283 146.8 542.499 146 541.923 144.976C541.363 143.936 541.083 142.736 541.083 141.376C541.083 140.016 541.355 138.824 541.899 137.8C542.459 136.76 543.235 135.96 544.227 135.4C545.235 134.84 546.387 134.56 547.683 134.56C548.931 134.56 550.043 134.832 551.019 135.376C551.995 135.92 552.755 136.688 553.299 137.68C553.843 138.656 554.115 139.784 554.115 141.064ZM551.259 140.2C551.243 139.192 550.883 138.384 550.179 137.776C549.475 137.168 548.603 136.864 547.563 136.864C546.619 136.864 545.811 137.168 545.139 137.776C544.467 138.368 544.067 139.176 543.939 140.2H551.259ZM563.48 134.56C564.52 134.56 565.448 134.776 566.264 135.208C567.096 135.64 567.744 136.28 568.208 137.128C568.672 137.976 568.904 139 568.904 140.2V148H566.192V140.608C566.192 139.424 565.896 138.52 565.304 137.896C564.712 137.256 563.904 136.936 562.88 136.936C561.856 136.936 561.04 137.256 560.432 137.896C559.84 138.52 559.544 139.424 559.544 140.608V148H556.808V134.776H559.544V136.288C559.992 135.744 560.56 135.32 561.248 135.016C561.952 134.712 562.696 134.56 563.48 134.56ZM573.786 133.024C573.29 133.024 572.874 132.856 572.538 132.52C572.202 132.184 572.034 131.768 572.034 131.272C572.034 130.776 572.202 130.36 572.538 130.024C572.874 129.688 573.29 129.52 573.786 129.52C574.266 129.52 574.674 129.688 575.01 130.024C575.346 130.36 575.514 130.776 575.514 131.272C575.514 131.768 575.346 132.184 575.01 132.52C574.674 132.856 574.266 133.024 573.786 133.024ZM575.13 150.592C575.13 151.888 574.802 152.824 574.146 153.4C573.506 153.992 572.57 154.288 571.338 154.288H569.922V151.984H570.858C571.418 151.984 571.81 151.872 572.034 151.648C572.274 151.44 572.394 151.088 572.394 150.592V134.776H575.13V150.592ZM584.458 148.216C583.21 148.216 582.082 147.936 581.074 147.376C580.066 146.8 579.274 146 578.698 144.976C578.122 143.936 577.834 142.736 577.834 141.376C577.834 140.032 578.13 138.84 578.722 137.8C579.314 136.76 580.122 135.96 581.146 135.4C582.17 134.84 583.314 134.56 584.578 134.56C585.842 134.56 586.986 134.84 588.01 135.4C589.034 135.96 589.842 136.76 590.434 137.8C591.026 138.84 591.322 140.032 591.322 141.376C591.322 142.72 591.018 143.912 590.41 144.952C589.802 145.992 588.97 146.8 587.914 147.376C586.874 147.936 585.722 148.216 584.458 148.216ZM584.458 145.84C585.162 145.84 585.818 145.672 586.426 145.336C587.05 145 587.554 144.496 587.938 143.824C588.322 143.152 588.514 142.336 588.514 141.376C588.514 140.416 588.33 139.608 587.962 138.952C587.594 138.28 587.106 137.776 586.498 137.44C585.89 137.104 585.234 136.936 584.53 136.936C583.826 136.936 583.17 137.104 582.562 137.44C581.97 137.776 581.498 138.28 581.146 138.952C580.794 139.608 580.618 140.416 580.618 141.376C580.618 142.8 580.978 143.904 581.698 144.688C582.434 145.456 583.354 145.84 584.458 145.84ZM605.931 134.776L597.819 154.216H594.987L597.675 147.784L592.467 134.776H595.515L599.235 144.856L603.099 134.776H605.931ZM615.622 133.024C615.126 133.024 614.71 132.856 614.374 132.52C614.038 132.184 613.87 131.768 613.87 131.272C613.87 130.776 614.038 130.36 614.374 130.024C614.71 129.688 615.126 129.52 615.622 129.52C616.102 129.52 616.51 129.688 616.846 130.024C617.182 130.36 617.35 130.776 617.35 131.272C617.35 131.768 617.182 132.184 616.846 132.52C616.51 132.856 616.102 133.024 615.622 133.024ZM616.966 134.776V148H614.23V134.776H616.966ZM623.75 137.008V144.328C623.75 144.824 623.862 145.184 624.086 145.408C624.326 145.616 624.726 145.72 625.286 145.72H626.966V148H624.806C623.574 148 622.63 147.712 621.974 147.136C621.318 146.56 620.99 145.624 620.99 144.328V137.008H619.43V134.776H620.99V131.488H623.75V134.776H626.966V137.008H623.75ZM632.92 131.32L632.608 142.96H630.328L630.016 131.32H632.92ZM631.552 148.168C631.056 148.168 630.64 148 630.304 147.664C629.968 147.328 629.8 146.912 629.8 146.416C629.8 145.92 629.968 145.504 630.304 145.168C630.64 144.832 631.056 144.664 631.552 144.664C632.032 144.664 632.44 144.832 632.776 145.168C633.112 145.504 633.28 145.92 633.28 146.416C633.28 146.912 633.112 147.328 632.776 147.664C632.44 148 632.032 148.168 631.552 148.168Z" fill="#2C2C27"/>
</svg>
